<mxfile host="app.diagrams.net" agent="Mozilla/5.0 (X11; Linux x86_64; rv:142.0) Gecko/20100101 Firefox/142.0" version="28.2.3">
  <diagram name="Page-1" id="osGHmgrCMPnHRkpEAeP0">
    <mxGraphModel dx="648" dy="364" grid="1" gridSize="10" guides="1" tooltips="1" connect="1" arrows="1" fold="1" page="1" pageScale="1" pageWidth="827" pageHeight="1169" math="1" shadow="0">
      <root>
        <mxCell id="0" />
        <mxCell id="1" parent="0" />
        <mxCell id="mMdcIYZgbFbzCLsOvSOw-25" value="$$1\ k\Omega$$" style="text;html=1;align=center;verticalAlign=middle;whiteSpace=wrap;rounded=0;fontFamily=Helvetica;fontSize=11;fontColor=default;labelBackgroundColor=default;" vertex="1" parent="1">
          <mxGeometry x="140" y="170" width="60" height="20" as="geometry" />
        </mxCell>
        <mxCell id="mMdcIYZgbFbzCLsOvSOw-26" value="$$3.3\ k\Omega$$" style="text;html=1;align=center;verticalAlign=middle;whiteSpace=wrap;rounded=0;fontFamily=Helvetica;fontSize=11;fontColor=default;labelBackgroundColor=default;" vertex="1" parent="1">
          <mxGeometry x="320" y="170" width="60" height="20" as="geometry" />
        </mxCell>
        <mxCell id="mMdcIYZgbFbzCLsOvSOw-27" value="$$10\ k\Omega$$" style="text;html=1;align=center;verticalAlign=middle;whiteSpace=wrap;rounded=0;fontFamily=Helvetica;fontSize=11;fontColor=default;labelBackgroundColor=default;" vertex="1" parent="1">
          <mxGeometry x="320" y="90" width="60" height="20" as="geometry" />
        </mxCell>
        <mxCell id="mMdcIYZgbFbzCLsOvSOw-28" value="$$2.2\ k\Omega$$" style="text;html=1;align=left;verticalAlign=middle;whiteSpace=wrap;rounded=0;fontFamily=Helvetica;fontSize=11;fontColor=default;labelBackgroundColor=default;spacingLeft=3;" vertex="1" parent="1">
          <mxGeometry x="273" y="220" width="60" height="20" as="geometry" />
        </mxCell>
        <mxCell id="mMdcIYZgbFbzCLsOvSOw-29" value="$$4.7\ k\Omega$$" style="text;html=1;align=left;verticalAlign=middle;whiteSpace=wrap;rounded=0;fontFamily=Helvetica;fontSize=11;fontColor=default;labelBackgroundColor=default;spacingLeft=3;" vertex="1" parent="1">
          <mxGeometry x="452.5" y="220" width="60" height="20" as="geometry" />
        </mxCell>
        <mxCell id="mMdcIYZgbFbzCLsOvSOw-17" style="edgeStyle=orthogonalEdgeStyle;shape=connector;rounded=0;orthogonalLoop=1;jettySize=auto;html=1;exitX=1;exitY=0.5;exitDx=0;exitDy=0;exitPerimeter=0;entryX=0;entryY=0.5;entryDx=0;entryDy=0;strokeColor=default;align=center;verticalAlign=middle;fontFamily=Helvetica;fontSize=11;fontColor=default;labelBackgroundColor=default;endArrow=none;endFill=0;" edge="1" parent="1" source="mMdcIYZgbFbzCLsOvSOw-1" target="mMdcIYZgbFbzCLsOvSOw-14">
          <mxGeometry relative="1" as="geometry" />
        </mxCell>
        <mxCell id="mMdcIYZgbFbzCLsOvSOw-1" value="R&lt;sub&gt;1&lt;/sub&gt;" style="pointerEvents=1;verticalLabelPosition=top;shadow=0;dashed=0;align=center;html=1;verticalAlign=bottom;shape=mxgraph.electrical.resistors.resistor_2;labelPosition=center;" vertex="1" parent="1">
          <mxGeometry x="120" y="150" width="100" height="20" as="geometry" />
        </mxCell>
        <mxCell id="mMdcIYZgbFbzCLsOvSOw-2" value="12V" style="pointerEvents=1;verticalLabelPosition=bottom;shadow=0;dashed=0;align=center;html=1;verticalAlign=top;shape=mxgraph.electrical.miscellaneous.batteryStack;rotation=-90;horizontal=1;textDirection=vertical-lr;labelPosition=center;" vertex="1" parent="1">
          <mxGeometry x="60" y="200" width="60" height="60" as="geometry" />
        </mxCell>
        <mxCell id="mMdcIYZgbFbzCLsOvSOw-18" style="edgeStyle=orthogonalEdgeStyle;shape=connector;rounded=0;orthogonalLoop=1;jettySize=auto;html=1;exitX=1;exitY=0.5;exitDx=0;exitDy=0;exitPerimeter=0;entryX=0.5;entryY=1;entryDx=0;entryDy=0;strokeColor=default;align=center;verticalAlign=middle;fontFamily=Helvetica;fontSize=11;fontColor=default;labelBackgroundColor=default;endArrow=none;endFill=0;" edge="1" parent="1" source="mMdcIYZgbFbzCLsOvSOw-3" target="mMdcIYZgbFbzCLsOvSOw-14">
          <mxGeometry relative="1" as="geometry" />
        </mxCell>
        <mxCell id="mMdcIYZgbFbzCLsOvSOw-3" value="R&lt;sub&gt;2&lt;/sub&gt;" style="pointerEvents=1;verticalLabelPosition=top;shadow=0;dashed=0;align=center;html=1;verticalAlign=middle;shape=mxgraph.electrical.resistors.resistor_2;rotation=-90;labelPosition=center;horizontal=1;textDirection=vertical-lr;spacingTop=10;" vertex="1" parent="1">
          <mxGeometry x="210" y="220" width="100" height="20" as="geometry" />
        </mxCell>
        <mxCell id="mMdcIYZgbFbzCLsOvSOw-19" style="edgeStyle=orthogonalEdgeStyle;shape=connector;rounded=0;orthogonalLoop=1;jettySize=auto;html=1;exitX=0;exitY=0.5;exitDx=0;exitDy=0;exitPerimeter=0;entryX=1;entryY=0.5;entryDx=0;entryDy=0;strokeColor=default;align=center;verticalAlign=middle;fontFamily=Helvetica;fontSize=11;fontColor=default;labelBackgroundColor=default;endArrow=none;endFill=0;" edge="1" parent="1" source="mMdcIYZgbFbzCLsOvSOw-4" target="mMdcIYZgbFbzCLsOvSOw-14">
          <mxGeometry relative="1" as="geometry" />
        </mxCell>
        <mxCell id="mMdcIYZgbFbzCLsOvSOw-21" style="edgeStyle=orthogonalEdgeStyle;shape=connector;rounded=0;orthogonalLoop=1;jettySize=auto;html=1;exitX=1;exitY=0.5;exitDx=0;exitDy=0;exitPerimeter=0;entryX=0;entryY=0.5;entryDx=0;entryDy=0;strokeColor=default;align=center;verticalAlign=middle;fontFamily=Helvetica;fontSize=11;fontColor=default;labelBackgroundColor=default;endArrow=none;endFill=0;" edge="1" parent="1" source="mMdcIYZgbFbzCLsOvSOw-4" target="mMdcIYZgbFbzCLsOvSOw-15">
          <mxGeometry relative="1" as="geometry" />
        </mxCell>
        <mxCell id="mMdcIYZgbFbzCLsOvSOw-4" value="R&lt;sub&gt;4&lt;/sub&gt;" style="pointerEvents=1;verticalLabelPosition=top;shadow=0;dashed=0;align=center;html=1;verticalAlign=bottom;shape=mxgraph.electrical.resistors.resistor_2;labelPosition=center;" vertex="1" parent="1">
          <mxGeometry x="300" y="150" width="100" height="20" as="geometry" />
        </mxCell>
        <mxCell id="mMdcIYZgbFbzCLsOvSOw-20" style="edgeStyle=orthogonalEdgeStyle;shape=connector;rounded=0;orthogonalLoop=1;jettySize=auto;html=1;exitX=0;exitY=0.5;exitDx=0;exitDy=0;exitPerimeter=0;entryX=0.5;entryY=0;entryDx=0;entryDy=0;strokeColor=default;align=center;verticalAlign=middle;fontFamily=Helvetica;fontSize=11;fontColor=default;labelBackgroundColor=default;endArrow=none;endFill=0;" edge="1" parent="1" source="mMdcIYZgbFbzCLsOvSOw-5" target="mMdcIYZgbFbzCLsOvSOw-14">
          <mxGeometry relative="1" as="geometry" />
        </mxCell>
        <mxCell id="mMdcIYZgbFbzCLsOvSOw-23" style="edgeStyle=orthogonalEdgeStyle;shape=connector;rounded=0;orthogonalLoop=1;jettySize=auto;html=1;exitX=1;exitY=0.5;exitDx=0;exitDy=0;exitPerimeter=0;entryX=0.5;entryY=0;entryDx=0;entryDy=0;strokeColor=default;align=center;verticalAlign=middle;fontFamily=Helvetica;fontSize=11;fontColor=default;labelBackgroundColor=default;endArrow=none;endFill=0;" edge="1" parent="1" source="mMdcIYZgbFbzCLsOvSOw-5" target="mMdcIYZgbFbzCLsOvSOw-15">
          <mxGeometry relative="1" as="geometry" />
        </mxCell>
        <mxCell id="mMdcIYZgbFbzCLsOvSOw-5" value="R&lt;sub&gt;3&lt;/sub&gt;" style="pointerEvents=1;verticalLabelPosition=top;shadow=0;dashed=0;align=center;html=1;verticalAlign=bottom;shape=mxgraph.electrical.resistors.resistor_2;labelPosition=center;" vertex="1" parent="1">
          <mxGeometry x="300" y="70" width="100" height="20" as="geometry" />
        </mxCell>
        <mxCell id="mMdcIYZgbFbzCLsOvSOw-22" style="edgeStyle=orthogonalEdgeStyle;shape=connector;rounded=0;orthogonalLoop=1;jettySize=auto;html=1;exitX=1;exitY=0.5;exitDx=0;exitDy=0;exitPerimeter=0;entryX=0.5;entryY=1;entryDx=0;entryDy=0;strokeColor=default;align=center;verticalAlign=middle;fontFamily=Helvetica;fontSize=11;fontColor=default;labelBackgroundColor=default;endArrow=none;endFill=0;" edge="1" parent="1" source="mMdcIYZgbFbzCLsOvSOw-6" target="mMdcIYZgbFbzCLsOvSOw-15">
          <mxGeometry relative="1" as="geometry" />
        </mxCell>
        <mxCell id="mMdcIYZgbFbzCLsOvSOw-6" value="R&lt;sub&gt;5&lt;/sub&gt;" style="pointerEvents=1;verticalLabelPosition=top;shadow=0;dashed=0;align=center;html=1;verticalAlign=middle;shape=mxgraph.electrical.resistors.resistor_2;rotation=-90;textDirection=vertical-lr;labelPosition=center;spacingLeft=0;spacingTop=10;" vertex="1" parent="1">
          <mxGeometry x="390" y="220" width="100" height="20" as="geometry" />
        </mxCell>
        <mxCell id="mMdcIYZgbFbzCLsOvSOw-7" value="" style="pointerEvents=1;verticalLabelPosition=bottom;shadow=0;dashed=0;align=center;html=1;verticalAlign=top;shape=mxgraph.electrical.signal_sources.protective_earth;" vertex="1" parent="1">
          <mxGeometry x="248" y="300" width="25" height="20" as="geometry" />
        </mxCell>
        <mxCell id="mMdcIYZgbFbzCLsOvSOw-8" value="" style="pointerEvents=1;verticalLabelPosition=bottom;shadow=0;dashed=0;align=center;html=1;verticalAlign=top;shape=mxgraph.electrical.signal_sources.protective_earth;" vertex="1" parent="1">
          <mxGeometry x="427.5" y="300" width="25" height="20" as="geometry" />
        </mxCell>
        <mxCell id="mMdcIYZgbFbzCLsOvSOw-10" style="edgeStyle=orthogonalEdgeStyle;rounded=0;orthogonalLoop=1;jettySize=auto;html=1;exitX=0.5;exitY=0;exitDx=0;exitDy=0;exitPerimeter=0;entryX=0;entryY=0.5;entryDx=0;entryDy=0;endArrow=none;endFill=0;" edge="1" parent="1" source="mMdcIYZgbFbzCLsOvSOw-9" target="mMdcIYZgbFbzCLsOvSOw-2">
          <mxGeometry relative="1" as="geometry" />
        </mxCell>
        <mxCell id="mMdcIYZgbFbzCLsOvSOw-9" value="" style="pointerEvents=1;verticalLabelPosition=bottom;shadow=0;dashed=0;align=center;html=1;verticalAlign=top;shape=mxgraph.electrical.signal_sources.protective_earth;" vertex="1" parent="1">
          <mxGeometry x="77.5" y="300" width="25" height="20" as="geometry" />
        </mxCell>
        <mxCell id="mMdcIYZgbFbzCLsOvSOw-11" style="edgeStyle=orthogonalEdgeStyle;shape=connector;rounded=0;orthogonalLoop=1;jettySize=auto;html=1;exitX=0.5;exitY=0;exitDx=0;exitDy=0;exitPerimeter=0;entryX=0;entryY=0.5;entryDx=0;entryDy=0;entryPerimeter=0;strokeColor=default;align=center;verticalAlign=middle;fontFamily=Helvetica;fontSize=11;fontColor=default;labelBackgroundColor=default;endArrow=none;endFill=0;" edge="1" parent="1" source="mMdcIYZgbFbzCLsOvSOw-7" target="mMdcIYZgbFbzCLsOvSOw-3">
          <mxGeometry relative="1" as="geometry" />
        </mxCell>
        <mxCell id="mMdcIYZgbFbzCLsOvSOw-12" style="edgeStyle=orthogonalEdgeStyle;shape=connector;rounded=0;orthogonalLoop=1;jettySize=auto;html=1;exitX=0.5;exitY=0;exitDx=0;exitDy=0;exitPerimeter=0;entryX=0;entryY=0.5;entryDx=0;entryDy=0;entryPerimeter=0;strokeColor=default;align=center;verticalAlign=middle;fontFamily=Helvetica;fontSize=11;fontColor=default;labelBackgroundColor=default;endArrow=none;endFill=0;" edge="1" parent="1" source="mMdcIYZgbFbzCLsOvSOw-8" target="mMdcIYZgbFbzCLsOvSOw-6">
          <mxGeometry relative="1" as="geometry" />
        </mxCell>
        <mxCell id="mMdcIYZgbFbzCLsOvSOw-14" value="" style="verticalLabelPosition=bottom;shadow=0;dashed=0;align=center;html=1;verticalAlign=top;strokeWidth=1;shape=ellipse;perimeter=ellipsePerimeter;fontFamily=Helvetica;fontSize=11;fontColor=default;labelBackgroundColor=default;fillColor=light-dark(#000000,#FFFFFF);" vertex="1" parent="1">
          <mxGeometry x="255" y="155" width="10" height="10" as="geometry" />
        </mxCell>
        <mxCell id="mMdcIYZgbFbzCLsOvSOw-15" value="" style="verticalLabelPosition=bottom;shadow=0;dashed=0;align=center;html=1;verticalAlign=top;strokeWidth=1;shape=ellipse;perimeter=ellipsePerimeter;fontFamily=Helvetica;fontSize=11;fontColor=default;labelBackgroundColor=default;fillColor=light-dark(#000000,#FFFFFF);" vertex="1" parent="1">
          <mxGeometry x="435" y="155" width="10" height="10" as="geometry" />
        </mxCell>
        <mxCell id="mMdcIYZgbFbzCLsOvSOw-16" style="edgeStyle=orthogonalEdgeStyle;shape=connector;rounded=0;orthogonalLoop=1;jettySize=auto;html=1;exitX=1;exitY=0.5;exitDx=0;exitDy=0;entryX=0;entryY=0.5;entryDx=0;entryDy=0;entryPerimeter=0;strokeColor=default;align=center;verticalAlign=middle;fontFamily=Helvetica;fontSize=11;fontColor=default;labelBackgroundColor=default;endArrow=none;endFill=0;" edge="1" parent="1" source="mMdcIYZgbFbzCLsOvSOw-2" target="mMdcIYZgbFbzCLsOvSOw-1">
          <mxGeometry relative="1" as="geometry" />
        </mxCell>
        <mxCell id="mMdcIYZgbFbzCLsOvSOw-30" value="&lt;font style=&quot;font-size: 16px;&quot;&gt;+&lt;/font&gt;" style="text;html=1;align=center;verticalAlign=middle;whiteSpace=wrap;rounded=0;fontFamily=Helvetica;fontSize=11;fontColor=default;labelBackgroundColor=default;" vertex="1" parent="1">
          <mxGeometry x="40" y="190" width="20" height="30" as="geometry" />
        </mxCell>
        <mxCell id="mMdcIYZgbFbzCLsOvSOw-32" value="-" style="text;html=1;align=center;verticalAlign=middle;whiteSpace=wrap;rounded=0;fontFamily=Helvetica;fontSize=18;fontColor=default;labelBackgroundColor=default;" vertex="1" parent="1">
          <mxGeometry x="40" y="230" width="20" height="30" as="geometry" />
        </mxCell>
      </root>
    </mxGraphModel>
  </diagram>
</mxfile>
